<svg xmlns="http://www.w3.org/2000/svg" viewBox="0 0 405 405"><defs><style>.a,.b,.c,.d,.e,.f,.g,.h,.i,.j,.l{fill:none;}.a,.b,.c,.e,.f,.g,.h,.i,.j,.l{stroke:#3762ae;stroke-miterlimit:10;stroke-width:5px;}.b{stroke-dasharray:13.91964 13.91964;}.c{stroke-dasharray:14.71054 14.71054;}.e{stroke-dasharray:14.7063 14.7063;}.f{stroke-dasharray:14.76918 14.76918;}.g{stroke-dasharray:15.07462 15.07462;}.h{stroke-dasharray:15.10561 15.10561;}.i{stroke-dasharray:14.14983 14.14983;}.j{stroke-dasharray:14.72006 14.72006;}.k{fill:#3762ae;}.l{stroke-dasharray:14;}</style></defs><title>Logo</title><path class="a" d="M224.99976,76.75024q-3.47319.49917-6.90761,1.13533" transform="translate(-47.5 -47.5)"/><path class="b" d="M204.51973,80.96549a174.85066,174.85066,0,0,0-44.67886,19.03829" transform="translate(-47.5 -47.5)"/><path class="a" d="M153.946,103.71337q-2.92541,1.92282-5.77142,3.96" transform="translate(-47.5 -47.5)"/><path class="a" d="M355.0372,109.99014q-2.79309-2.09945-5.67526-4.0906" transform="translate(-47.5 -47.5)"/><path class="c" d="M336.91913,98.05893a173.9154,173.9154,0,0,0-47.79547-18.64277" transform="translate(-47.5 -47.5)"/><path class="a" d="M281.90863,77.92851Q278.48044,77.296,275,76.79436" transform="translate(-47.5 -47.5)"/><path class="d" d="M390.00058,145.00056" transform="translate(-47.5 -47.5)"/><path class="a" d="M423.24973,224.99976q-.4992-3.47319-1.13535-6.90763" transform="translate(-47.5 -47.5)"/><path class="e" d="M418.828,203.76038a174.94062,174.94062,0,0,0-20.68847-46.93462" transform="translate(-47.5 -47.5)"/><path class="a" d="M394.08862,150.68207q-1.98756-2.88147-4.088-5.68151" transform="translate(-47.5 -47.5)"/><path class="d" d="M423.24971,224.99975" transform="translate(-47.5 -47.5)"/><path class="a" d="M390.024,355.01831q2.09907-2.79336,4.08981-5.67581" transform="translate(-47.5 -47.5)"/><path class="f" d="M401.98184,336.84775a173.92185,173.92185,0,0,0,18.66565-48.00446" transform="translate(-47.5 -47.5)"/><path class="a" d="M422.12866,281.59686q.62635-3.42924,1.1218-6.91064" transform="translate(-47.5 -47.5)"/><path class="a" d="M274.93335,423.25931q3.47337-.49782,6.90805-1.13263" transform="translate(-47.5 -47.5)"/><path class="g" d="M296.52969,418.74817A174.97964,174.97964,0,0,0,344.51608,397.286" transform="translate(-47.5 -47.5)"/><path class="a" d="M350.77383,393.07346q2.86116-2.01645,5.64-4.14508" transform="translate(-47.5 -47.5)"/><path class="a" d="M144.98158,390.0239q2.80048,2.10442,5.67252,4.09765" transform="translate(-47.5 -47.5)"/><path class="h" d="M163.41356,402.20038a168.52911,168.52911,0,0,0,49.16894,18.84286" transform="translate(-47.5 -47.5)"/><path class="a" d="M220.01347,422.45462q3.43066.57464,6.92762,1.01938" transform="translate(-47.5 -47.5)"/><path class="a" d="M76.741,274.93582q.49788,3.47337,1.13275,6.908" transform="translate(-47.5 -47.5)"/><path class="i" d="M81.0086,295.63974a174.8742,174.8742,0,0,0,19.49833,45.34991" transform="translate(-47.5 -47.5)"/><path class="a" d="M104.3129,346.95993q1.9408,2.91344,3.99556,5.74689" transform="translate(-47.5 -47.5)"/><path class="a" d="M109.97607,144.98158q-2.09907,2.79337-4.08983,5.67581" transform="translate(-47.5 -47.5)"/><path class="j" d="M98.04259,163.1095A173.91687,173.91687,0,0,0,79.40149,210.941" transform="translate(-47.5 -47.5)"/><path class="a" d="M77.91569,218.16129q-.63117,3.42841-1.13138,6.90908" transform="translate(-47.5 -47.5)"/><circle class="a" cx="202.5" cy="27.5" r="25"/><circle class="a" cx="202.5" cy="377.5" r="25"/><circle class="a" cx="77.5" cy="327.5" r="25"/><circle class="a" cx="377.5" cy="202.5" r="25"/><circle class="a" cx="27.5" cy="202.5" r="25"/><circle class="a" cx="77.5" cy="77.5" r="25"/><circle class="a" cx="327.5" cy="327.5" r="25"/><circle class="a" cx="327.5" cy="77.5" r="25"/><path class="k" d="M249.83066,349.99622c-54.33448.429-99.91181-44.2025-99.83055-100.01777A99.99993,99.99993,0,1,1,350,250.04C349.94653,305.96939,304.68492,350.47215,249.83066,349.99622ZM199.24,209.18109a123.61244,123.61244,0,0,1-23.15333-14.38352,91.29011,91.29011,0,0,0-18.38507,54.5518h34.69607c.74355-6.86393,1.15328-13.61417,2.28292-20.24153C195.8147,222.45411,197.66625,215.92284,199.24,209.18109Zm143.0385,40.20184a91.44575,91.44575,0,0,0-17.27874-53.0962,4.07549,4.07549,0,0,0-.48974.25366,120.66684,120.66684,0,0,1-23.76529,13.91c-.94112.41357-.83288.87083-.58234,1.65181a119.97113,119.97113,0,0,1,5.78439,32.40584c.05843,1.602.00811,3.208.00811,4.87492Zm-36.39979,7.8376a123.1791,123.1791,0,0,1-7.986,37.23514,121.24329,121.24329,0,0,1,24.08467,13.1895c10.39594-11.36728,20.97481-38.27151,19.8412-50.42464Zm-112.81256.04122H157.97494a91.54533,91.54533,0,0,0,21.04476,51.731A121.05074,121.05074,0,0,1,201.589,295.89716,122.56629,122.56629,0,0,1,193.06613,257.26175ZM246.07776,220.783a122.67644,122.67644,0,0,1-39.25581-8.30873c-4.37671,11.527-6.78211,29.18286-6.09534,36.91643h45.35115Zm-.04948,64.7754v-28.289h-45.247a113.74,113.74,0,0,0,7.97809,35.72681A124.05475,124.05475,0,0,1,246.02828,285.55836Zm46.55445-71.82463a123.06489,123.06489,0,0,1-38.63024,7.17062v28.45247h44.42882A114.62744,114.62744,0,0,0,292.58273,213.73373ZM290.561,291.7641c3.63769-7.72529,8.22806-29.214,7.406-34.52244H253.96887v28.19728A124.9346,124.9346,0,0,1,290.561,291.7641ZM246.09048,158.6328a114.467,114.467,0,0,0-36.56278,46.588,113.32915,113.32915,0,0,0,36.56278,7.8167Zm43.8604,47.84048a114.08981,114.08981,0,0,0-35.98117-46.93255v53.63713A114.28638,114.28638,0,0,0,289.95088,206.47328Zm-43.8735,86.79541a114.42374,114.42374,0,0,0-34.19572,6.8328,114.85221,114.85221,0,0,0,34.19572,41.32613Zm41.42721,5.73072c-5.71242-2.82572-29.01167-6.73725-33.57938-5.62476v47.07453C264.90811,333.6755,282.72942,311.65047,287.50459,298.99941Zm32.63775-108.86969a92.34845,92.34845,0,0,0-24.57117-20.38006c-8.84049-5.04334-25.74115-10.97339-29.7437-10.40713a121.57393,121.57393,0,0,1,31.30287,44.293A113.54293,113.54293,0,0,0,320.14234,190.12972ZM180.98986,188.786A112.5864,112.5864,0,0,0,202.436,202.13741,123.89449,123.89449,0,0,1,232.81261,159.415C212.30118,163.38217,195.13463,173.18761,180.98986,188.786ZM294.92119,301.5955a122.73391,122.73391,0,0,1-12.56044,21.10416,137.095,137.095,0,0,1-16.44419,18.18741,91.66661,91.66661,0,0,0,51.03592-27.32235A109.99416,109.99416,0,0,0,294.92119,301.5955Zm-90.15678,1.5186c-3.84528,1.05341-17.09065,8.65888-20.38442,11.66292,10.00905,11.67172,36.44338,25.762,48.52546,25.80009A119.97035,119.97035,0,0,1,204.76441,303.1141Z" transform="translate(-47.5 -47.5)"/><line class="l" x1="202.5" y1="305.62903" x2="202.5" y2="352.5"/><line class="l" x1="202.49988" y1="57.30645" x2="202.49988" y2="104.17742"/><line class="l" x1="57.56452" y1="202.5" x2="104.43548" y2="202.5"/><line class="l" x1="305.62903" y1="202.5" x2="352.5" y2="202.5"/></svg>